<svg xmlns="http://www.w3.org/2000/svg" xmlns:xlink="http://www.w3.org/1999/xlink" width="375.043" height="68.969" viewBox="0 0 375.043 68.969">
  <defs>
    <clipPath id="clip-path">
      <rect id="Rectangle_2179" data-name="Rectangle 2179" width="282.482" height="55.511" fill="none"/>
    </clipPath>
  </defs>
  <g id="APHW_BRICK_LOGO_2021" transform="translate(0 0.09)">
    <path id="Path_607" data-name="Path 607" d="M172.62,207.6c9.616-3.23,18.5-2.753,23.179,8.573l.656,1.461c-4.771-13.592-11.555-14.944-21.593-12.876Z" transform="translate(-113.55 -176.77)" fill="#8d2528"/>
    <path id="Path_608" data-name="Path 608" d="M171,211.667c10.526-4.214,18.388-5.059,24.61,8.329l.07.189c-5.516-11.127-14.049-11.132-23.7-7.057Z" transform="translate(-112.735 -179.255)" fill="#8d2528"/>
    <path id="Path_609" data-name="Path 609" d="M104.557,214.93c-17.28,8.14-35.444,19.8-43.2-.07l-1.635,4.885c8.588,20.793,29.321,5.367,47.938-3.653Z" transform="translate(-56.758 -182.244)" fill="#8d2528"/>
    <path id="Path_610" data-name="Path 610" d="M104.62,221.51c-18.154,9.666-39.758,25.922-49.483,5.079L53.76,231.8c10.491,21.444,31.717,2.9,50.85-8.1v-2.2" transform="translate(-53.76 -185.59)" fill="#8d2528"/>
    <path id="Path_611" data-name="Path 611" d="M161.827,202.392l-3.176,3.976,2.8,4.264-4.766-1.809L153.5,212.8l.248-5.1L149,205.9l4.885-1.337.253-5.069,2.813,4.229Z" transform="translate(-101.669 -174.513)" fill="#ae9931"/>
    <path id="Path_612" data-name="Path 612" d="M155.746,175.365l-9.472-19.108a6.739,6.739,0,0,1-.87-3.017q0-1.923,2.7-2.7V149.05h-22.13v1.491q2.654.914,2.654,3.017a9.122,9.122,0,0,1-1.1,3.658L112.39,188.842c.865.089,14.521-6.436,16.33-7.087l.318-.681-1.9-.741,2.574-.691,6.863-14.835,5.258,11.55h0a42.149,42.149,0,0,1,8.568-1.431A20.628,20.628,0,0,1,155.746,175.365Z" transform="translate(-83.253 -149.14)" fill="#221f1f"/>
    <path id="Path_613" data-name="Path 613" d="M193.109,217.376l10.024,20.281a15.8,15.8,0,0,0,2.649,4.18,5.77,5.77,0,0,0,3.066,1.491v1.466h-22.97v-1.466q3.017-.5,3.022-2.833a7.271,7.271,0,0,0-.914-2.833l-8.2-17.329-1.61-3.523a19.089,19.089,0,0,1,7.619-1.575C191.007,215.115,192.6,216.954,193.109,217.376Z" transform="translate(-116.342 -182.43)" fill="#221f1f"/>
    <path id="Path_614" data-name="Path 614" d="M108.308,246.78l-3.205,6.749a7.275,7.275,0,0,0-.87,2.877q0,2.013,3.056,2.788v1.466H86.65v-1.466a5.562,5.562,0,0,0,2.788-1.277,11.46,11.46,0,0,0,1.988-3.131C95.62,253.951,101.087,251.253,108.308,246.78Z" transform="translate(-70.305 -198.301)" fill="#221f1f"/>
    <path id="Path_615" data-name="Path 615" d="M138.913,259.368v2.251a.573.573,0,0,1-.626.5l-2.246.189c-.422.035-.79-.2-.79-.5V259.82c0-.229.214-.432.522-.5l2.246-.442c.452-.089.895.154.895.5Z" transform="translate(-94.752 -204.379)" fill="#8d2528"/>
    <path id="Path_616" data-name="Path 616" d="M142.973,267.764v2.793c0,.283-.318.5-.706.5h-6.307c-.393,0-.711-.229-.711-.5V268.3a.576.576,0,0,1,.626-.5l6.307-.532C142.605,267.232,142.973,267.47,142.973,267.764Z" transform="translate(-94.752 -208.605)" fill="#8d2528"/>
    <path id="Path_617" data-name="Path 617" d="M143,247.952V250.5a.577.577,0,0,1-.5.5l-6.307,1.242c-.452.089-.895-.154-.895-.5v-1.884a.547.547,0,0,1,.437-.472l6.307-1.908c.467-.139.994.109.994.472Z" transform="translate(-94.777 -198.634)" fill="#8d2528"/>
    <path id="Path_618" data-name="Path 618" d="M153.718,232.48l-7.34,2.887a.5.5,0,0,0-.368.452V238.3c0,.368.5.611.994.5l6.729-1.988v-4.319Z" transform="translate(-100.165 -191.108)" fill="#8d2528"/>
    <path id="Path_619" data-name="Path 619" d="M157.828,243.69l-3.215.969a.537.537,0,0,0-.432.5v2.872c0,.338.442.581.895.5l2.753-.5v-4.3Z" transform="translate(-104.274 -196.747)" fill="#8d2528"/>
    <path id="Path_620" data-name="Path 620" d="M153.688,254.82l-7.216,1.4a.57.57,0,0,0-.522.5v2.6c0,.308.368.547.79.5l6.958-.562V254.81Z" transform="translate(-100.134 -202.341)" fill="#8d2528"/>
    <path id="Path_621" data-name="Path 621" d="M157.828,266.195l-3.022.248c-.358.03-.626.249-.626.5V270c0,.283.318.5.706.5h2.942V266.17Z" transform="translate(-104.274 -208.055)" fill="#8d2528"/>
    <path id="Path_622" data-name="Path 622" d="M180.42,259.368v2.251a.573.573,0,0,0,.626.5l2.246.189c.417.035.79-.2.79-.5V259.82a.577.577,0,0,0-.5-.5l-2.246-.442c-.452-.089-.895.154-.895.5Z" transform="translate(-117.474 -204.379)" fill="#ae282e"/>
    <path id="Path_623" data-name="Path 623" d="M172.25,267.764v2.793c0,.283.318.5.706.5h6.307c.393,0,.711-.229.711-.5V268.3a.576.576,0,0,0-.626-.5l-6.307-.532C172.618,267.232,172.25,267.47,172.25,267.764Z" transform="translate(-113.364 -208.605)" fill="#ae282e"/>
    <path id="Path_624" data-name="Path 624" d="M172.235,247.952V250.5c0,.229.214.432.522.5l6.307,1.242c.447.089.895-.154.895-.5v-1.884a.547.547,0,0,0-.437-.472l-6.307-1.908c-.467-.139-.994.109-.994.472Z" transform="translate(-113.349 -198.634)" fill="#ae282e"/>
    <path id="Path_625" data-name="Path 625" d="M161.5,232.48l7.34,2.887a.5.5,0,0,1,.368.452V238.3c0,.368-.5.611-.994.5l-6.729-1.988v-4.319Z" transform="translate(-107.951 -191.108)" fill="#ae282e"/>
    <path id="Path_626" data-name="Path 626" d="M161.52,243.69l3.21.969a.542.542,0,0,1,.437.5v2.872c0,.338-.442.581-.895.5l-2.753-.5v-4.3Z" transform="translate(-107.967 -196.747)" fill="#ae282e"/>
    <path id="Path_627" data-name="Path 627" d="M161.515,254.82l7.2,1.4a.57.57,0,0,1,.522.5v2.6c0,.308-.373.547-.79.5l-6.933-.562V254.81Z" transform="translate(-107.962 -202.341)" fill="#ae282e"/>
    <path id="Path_628" data-name="Path 628" d="M161.52,266.195l3.022.248c.358.03.626.249.626.5V270c0,.283-.318.5-.706.5H161.52V266.17Z" transform="translate(-107.967 -208.055)" fill="#ae282e"/>
    <path id="Path_629" data-name="Path 629" d="M249.393,185.538l.442-1.988.5,1.988,2.718,8.891h-6.222Zm-.914-4.408-6.64,18.785-1.779.388v1.888h7.455V200.3l-2.271-.373.994-3.379h7.46l1.034,3.364-2.246.388v1.888h8.945V200.3l-1.918-.388-6.63-18.785Z" transform="translate(-147.475 -165.277)" fill="#8d2528"/>
    <g id="Group_3145" data-name="Group 3145" transform="translate(92.561 13.368)" clip-path="url(#clip-path)">
      <path id="Path_630" data-name="Path 630" d="M285.134,207.257v-1.794l1.725-.313V194.535L285,193.953v-2.082l4.88-.671h.07l.731.591v1.64a6.386,6.386,0,0,1,1.123-.825,10.083,10.083,0,0,1,1.431-.706,10.343,10.343,0,0,1,1.565-.5,6.959,6.959,0,0,1,1.516-.179,5.268,5.268,0,0,1,2.525.5,3.186,3.186,0,0,1,1.416,1.625,7.123,7.123,0,0,1,.994-.726,9.736,9.736,0,0,1,1.387-.686,11.673,11.673,0,0,1,1.59-.522,6.921,6.921,0,0,1,1.62-.2,6.2,6.2,0,0,1,2.167.328,2.982,2.982,0,0,1,1.392,1.078,4.914,4.914,0,0,1,.745,1.933,16.576,16.576,0,0,1,.219,2.9v7.668l1.943.313v1.794h-7.628v-1.764l1.446-.313v-7.544a11.524,11.524,0,0,0-.119-1.8,3.236,3.236,0,0,0-.393-1.193,1.625,1.625,0,0,0-.745-.661,2.947,2.947,0,0,0-1.168-.2,3.339,3.339,0,0,0-.76.094,7.4,7.4,0,0,0-.825.244,8.143,8.143,0,0,0-.8.323,6.468,6.468,0,0,0-.676.358,9.362,9.362,0,0,1,.149,1.262q.045.678.045,1.491v7.648l1.834.3v1.794h-7.733v-1.8l1.655-.3v-7.7a10.606,10.606,0,0,0-.109-1.65,3.126,3.126,0,0,0-.378-1.133,1.635,1.635,0,0,0-.731-.656,2.758,2.758,0,0,0-1.168-.214,4.065,4.065,0,0,0-.86.094,7.33,7.33,0,0,0-.875.243,5.4,5.4,0,0,0-.785.328,3.892,3.892,0,0,0-.606.383v10.3l1.859.313v1.794Z" transform="translate(-262.641 -183.711)" fill="#8d2528"/>
      <path id="Path_631" data-name="Path 631" d="M347.646,192.993a2.629,2.629,0,0,0-.994.189,1.849,1.849,0,0,0-.815.731,4.921,4.921,0,0,0-.582,1.491,13.138,13.138,0,0,0-.278,2.485h4.945v-.895a11.639,11.639,0,0,0-.094-1.426,4.6,4.6,0,0,0-.353-1.287,2.485,2.485,0,0,0-.706-.924,1.779,1.779,0,0,0-1.148-.358m.373,14.556a8.414,8.414,0,0,1-3.345-.606,6.128,6.128,0,0,1-2.3-1.69,6.9,6.9,0,0,1-1.332-2.584,12.044,12.044,0,0,1-.427-3.28,10.218,10.218,0,0,1,.547-3.454,7.49,7.49,0,0,1,1.536-2.594,6.605,6.605,0,0,1,2.385-1.63,8.125,8.125,0,0,1,3.086-.567q5.725,0,5.964,5.581v1.72a8.938,8.938,0,0,1-.144,1.287h-8.98a8.619,8.619,0,0,0,.4,2.331,4.472,4.472,0,0,0,.87,1.57,3.171,3.171,0,0,0,1.272.885,4.6,4.6,0,0,0,1.62.273,7.3,7.3,0,0,0,1.312-.109,8.626,8.626,0,0,0,1.123-.278,7.181,7.181,0,0,0,.934-.368,7.649,7.649,0,0,0,.726-.4l.716,1.67a5.244,5.244,0,0,1-.959.75,8.632,8.632,0,0,1-1.406.721,10.6,10.6,0,0,1-1.71.552,7.806,7.806,0,0,1-1.864.224" transform="translate(-290.604 -183.685)" fill="#8d2528"/>
      <path id="Path_632" data-name="Path 632" d="M371.24,207.212v-1.849l1.988-.258V194.489l-1.874-.581v-2.082l4.736-.671h.079l.731.591v3.295h.055a6.39,6.39,0,0,1,.6-1.108,7.739,7.739,0,0,1,1.073-1.3,6.6,6.6,0,0,1,1.491-1.078,3.787,3.787,0,0,1,1.814-.447,5.276,5.276,0,0,1,.656.035,2.364,2.364,0,0,1,.378.089v4.791a2.555,2.555,0,0,0-.79-.244,7.982,7.982,0,0,0-1.526-.129,8.939,8.939,0,0,0-.964.055c-.323.04-.621.084-.9.144a5.721,5.721,0,0,0-.75.214,2.486,2.486,0,0,0-.5.248v8.8l3.434.328v1.794Z" transform="translate(-306.023 -183.665)" fill="#8d2528"/>
      <path id="Path_633" data-name="Path 633" d="M401.893,181.609a1.988,1.988,0,0,1-.86-.179,1.844,1.844,0,0,1-.631-.5,1.929,1.929,0,0,1-.388-.7,2.763,2.763,0,0,1-.134-.865,3.376,3.376,0,0,1,.149-.994,2.275,2.275,0,0,1,.447-.83,2.083,2.083,0,0,1,.75-.567,2.436,2.436,0,0,1,1.039-.209h0a2.331,2.331,0,0,1,.994.189,2.028,2.028,0,0,1,.681.5,1.988,1.988,0,0,1,.408.706,2.775,2.775,0,0,1,.129.84,3.433,3.433,0,0,1-.149,1.029,2.418,2.418,0,0,1-.462.83,2.171,2.171,0,0,1-.8.552,3.126,3.126,0,0,1-1.153.2ZM398.23,200v-1.849l1.988-.258V187.275l-1.864-.6v-2.067l5.059-.671h.07l.994.591v13.344l1.988.273V200Z" transform="translate(-319.6 -176.451)" fill="#8d2528"/>
      <path id="Path_634" data-name="Path 634" d="M417.184,199.5a9.939,9.939,0,0,1,.557-3.4,7.663,7.663,0,0,1,1.6-2.654,7.111,7.111,0,0,1,2.485-1.72,8.4,8.4,0,0,1,3.29-.616,12.716,12.716,0,0,1,1.695.1c.5.07.994.149,1.377.244s.755.184,1.049.278.532.174.716.229l-.139,4.7h-2.425l-.8-2.425a2.578,2.578,0,0,0-.74-.909,1.739,1.739,0,0,0-1.078-.333,2.376,2.376,0,0,0-1.178.313,2.862,2.862,0,0,0-.994.994,5.743,5.743,0,0,0-.7,1.729,10.873,10.873,0,0,0-.258,2.564,13.32,13.32,0,0,0,.268,2.892,5.387,5.387,0,0,0,.785,1.918,3.011,3.011,0,0,0,1.262,1.054,4.145,4.145,0,0,0,1.665.323,6.382,6.382,0,0,0,2.212-.343,8.241,8.241,0,0,0,1.565-.745l.73,1.67a4.966,4.966,0,0,1-.83.691,7.823,7.823,0,0,1-1.272.711,9.238,9.238,0,0,1-1.6.557,7.647,7.647,0,0,1-1.829.219,8.449,8.449,0,0,1-3.35-.606,6.113,6.113,0,0,1-2.311-1.685,7,7,0,0,1-1.337-2.544,11.207,11.207,0,0,1-.432-3.191" transform="translate(-329.126 -183.664)" fill="#8d2528"/>
      <path id="Path_635" data-name="Path 635" d="M453.064,204.909a2.714,2.714,0,0,0,.567-.065,6.456,6.456,0,0,0,.661-.194,5.467,5.467,0,0,0,.676-.3,2.768,2.768,0,0,0,.581-.393V199.4a8.448,8.448,0,0,0-2.241.248,4.18,4.18,0,0,0-1.441.661,2.411,2.411,0,0,0-.765.949,2.982,2.982,0,0,0-.229,1.148,2.748,2.748,0,0,0,.562,1.864,2.042,2.042,0,0,0,1.63.641m-6.545-1.844a4.258,4.258,0,0,1,.363-1.809,4.418,4.418,0,0,1,.994-1.377,5.964,5.964,0,0,1,1.491-.994,10.569,10.569,0,0,1,1.874-.686,14.7,14.7,0,0,1,2.092-.393c.726-.08,1.456-.134,2.182-.149V197a3.179,3.179,0,0,0-.641-2.241,2.808,2.808,0,0,0-2.1-.671,9.533,9.533,0,0,0-1.491.119c-.5.08-.994.174-1.441.288a12.55,12.55,0,0,0-1.277.388c-.388.144-.721.278-.994.408h0l-.81-1.859a6.96,6.96,0,0,1,.994-.611,12.039,12.039,0,0,1,1.655-.74,16.276,16.276,0,0,1,2.132-.621,11.1,11.1,0,0,1,2.415-.258,8.945,8.945,0,0,1,2.6.328,4.005,4.005,0,0,1,1.734.994,4.11,4.11,0,0,1,.994,1.744,8.819,8.819,0,0,1,.313,2.485v8.6h1.71v1.695l-.651.144c-.258.06-.542.114-.855.164s-.646.094-.994.134a9.882,9.882,0,0,1-1.1.055,8.143,8.143,0,0,1-.85-.04,1.273,1.273,0,0,1-.567-.194.89.89,0,0,1-.308-.437,2.442,2.442,0,0,1-.094-.765v-.8a5.327,5.327,0,0,1-.651.706,5.41,5.41,0,0,1-.994.731,6.1,6.1,0,0,1-1.327.572,5.531,5.531,0,0,1-1.645.229,6.206,6.206,0,0,1-1.829-.263,4.154,4.154,0,0,1-1.491-.81,3.921,3.921,0,0,1-.994-1.406,5.058,5.058,0,0,1-.373-2.028" transform="translate(-343.89 -183.709)" fill="#8d2528"/>
      <path id="Path_636" data-name="Path 636" d="M481.429,176.9a2.291,2.291,0,0,1,1.228.353,3.2,3.2,0,0,1,.994.994,4.97,4.97,0,0,1,.656,1.491,7.21,7.21,0,0,1,.234,1.9,9.441,9.441,0,0,1-.413,2.863,11.6,11.6,0,0,1-.994,2.336,9.066,9.066,0,0,1-1.242,1.7,5.268,5.268,0,0,1-1.1.944h-.06l-1.1-1.073v-.5a3.83,3.83,0,0,0,.542-.572,4.238,4.238,0,0,0,.562-.949,6.9,6.9,0,0,0,.616-2.982,3.434,3.434,0,0,0-.119-.994,2.982,2.982,0,0,0-.353-.735,4.092,4.092,0,0,0-.452-.572,6.044,6.044,0,0,1-.457-.547,2.757,2.757,0,0,1-.353-.656,2.58,2.58,0,0,1-.134-.89,2.1,2.1,0,0,1,.552-1.556,1.9,1.9,0,0,1,1.406-.552Z" transform="translate(-360.467 -176.517)" fill="#8d2528"/>
      <path id="Path_637" data-name="Path 637" d="M491.528,206.371V202.5h2.54l.716,2.152a1.552,1.552,0,0,0,.378.358,2.982,2.982,0,0,0,.606.318,5.851,5.851,0,0,0,.8.229,5.033,5.033,0,0,0,.924.084,3.23,3.23,0,0,0,1.123-.164,1.988,1.988,0,0,0,.7-.417,1.356,1.356,0,0,0,.358-.581,2.151,2.151,0,0,0,.094-.626,1.67,1.67,0,0,0-.293-.994,3.036,3.036,0,0,0-.84-.775,9.44,9.44,0,0,0-1.317-.681l-1.71-.716a10.761,10.761,0,0,1-1.71-.865,6,6,0,0,1-1.292-1.064,4.274,4.274,0,0,1-1.108-2.982,4.13,4.13,0,0,1,.408-1.814,4.021,4.021,0,0,1,1.208-1.446,6.048,6.048,0,0,1,1.988-.964,9.7,9.7,0,0,1,2.743-.353,10.472,10.472,0,0,1,1.62.114,12.312,12.312,0,0,1,1.287.253c.388.094.74.2,1.064.3a7.378,7.378,0,0,0,.934.239v3.807l-2.4-.04-.651-1.824a1.844,1.844,0,0,0-.731-.616,2.887,2.887,0,0,0-1.362-.308,3.285,3.285,0,0,0-1.039.139,1.725,1.725,0,0,0-.676.373,1.367,1.367,0,0,0-.368.5,1.58,1.58,0,0,0-.109.576,1.819,1.819,0,0,0,.373,1.178,3.23,3.23,0,0,0,.939.78,8.366,8.366,0,0,0,1.237.557c.452.159.88.333,1.282.5.606.263,1.183.547,1.734.85a7.1,7.1,0,0,1,1.491,1.039,4.533,4.533,0,0,1,1.019,1.372,4.184,4.184,0,0,1,.378,1.854,4.359,4.359,0,0,1-.393,1.859,4.04,4.04,0,0,1-1.183,1.491,5.869,5.869,0,0,1-1.988.994,9.741,9.741,0,0,1-2.788.358,11.721,11.721,0,0,1-1.988-.154c-.6-.1-1.148-.219-1.64-.348s-.929-.268-1.317-.4a9.518,9.518,0,0,0-.994-.3" transform="translate(-366.511 -183.71)" fill="#8d2528"/>
      <path id="Path_638" data-name="Path 638" d="M539.49,192.5a3.975,3.975,0,0,0,.785.1h1.188a4.16,4.16,0,0,0,1.491-.268,3.111,3.111,0,0,0,1.252-.895,4.636,4.636,0,0,0,.875-1.67,8.523,8.523,0,0,0,.333-2.584q0-4.4-3.9-4.4a8.148,8.148,0,0,0-1.193.07c-.288.045-.562.079-.82.1Zm-6.59,9.651v-1.888l2.261-.358v-16.46l-2.167-.427v-1.849h5.556l1.088-.065,1.2-.055h1.491a14.8,14.8,0,0,1,3.588.4,5.849,5.849,0,0,1,2.351,1.153,4.279,4.279,0,0,1,1.292,1.918,8.448,8.448,0,0,1,.393,2.694,7.953,7.953,0,0,1-.6,3.186,6.152,6.152,0,0,1-1.695,2.306,7.414,7.414,0,0,1-2.674,1.406,12.12,12.12,0,0,1-3.528.5h-.656l-.591-.035-.462-.04-.273-.035v5.467l3.861.373v1.889Z" transform="translate(-387.343 -178.604)" fill="#8d2528"/>
      <path id="Path_639" data-name="Path 639" d="M570.87,207.212v-1.849l1.988-.258V194.489l-1.874-.581v-2.082l4.711-.671h.085l.73.591v3.295h.055a6.067,6.067,0,0,1,.6-1.108,7.5,7.5,0,0,1,1.073-1.3,6.486,6.486,0,0,1,1.491-1.078,3.787,3.787,0,0,1,1.814-.447,5.274,5.274,0,0,1,.656.035,2.359,2.359,0,0,1,.378.089v4.791a2.6,2.6,0,0,0-.8-.243,7.95,7.95,0,0,0-1.521-.129,8.884,8.884,0,0,0-.964.055c-.323.04-.626.084-.9.144a5.5,5.5,0,0,0-.75.214,2.342,2.342,0,0,0-.5.248v8.8l3.434.328v1.794Z" transform="translate(-406.443 -183.665)" fill="#8d2528"/>
      <path id="Path_640" data-name="Path 640" d="M603.431,192.973a2.649,2.649,0,0,0-.994.189,1.849,1.849,0,0,0-.815.731,4.8,4.8,0,0,0-.576,1.491,12.685,12.685,0,0,0-.283,2.485h4.97v-.895a10.746,10.746,0,0,0-.085-1.446,4.6,4.6,0,0,0-.353-1.287,2.432,2.432,0,0,0-.7-.924,1.8,1.8,0,0,0-1.153-.358m.373,14.556a8.415,8.415,0,0,1-3.345-.606,6.167,6.167,0,0,1-2.3-1.69,6.957,6.957,0,0,1-1.332-2.584,12.044,12.044,0,0,1-.427-3.28,10.217,10.217,0,0,1,.547-3.454,7.488,7.488,0,0,1,1.536-2.594,6.6,6.6,0,0,1,2.385-1.63,8.126,8.126,0,0,1,3.086-.567q5.725,0,5.964,5.581v1.72a8.29,8.29,0,0,1-.144,1.287h-9.01a8.628,8.628,0,0,0,.4,2.331,4.636,4.636,0,0,0,.87,1.57,3.17,3.17,0,0,0,1.272.885,4.6,4.6,0,0,0,1.62.273,7.259,7.259,0,0,0,1.312-.109,8.445,8.445,0,0,0,1.123-.278,7.556,7.556,0,0,0,.939-.368,8.179,8.179,0,0,0,.721-.4l.716,1.67a5.363,5.363,0,0,1-.954.75,9.056,9.056,0,0,1-1.406.721,10.757,10.757,0,0,1-1.71.552,7.847,7.847,0,0,1-1.869.224" transform="translate(-419.289 -183.665)" fill="#8d2528"/>
      <path id="Path_641" data-name="Path 641" d="M627.459,199.68v-1.819l2.207-.373V186.376H627.24v-1.65l2.425-.691v-.8a6.318,6.318,0,0,1,.676-2.942,7.332,7.332,0,0,1,1.749-2.236,7.817,7.817,0,0,1,2.366-1.421,7.32,7.32,0,0,1,2.579-.5,5.078,5.078,0,0,1,1.064.084,5.648,5.648,0,0,1,.552.149V180.5a2.163,2.163,0,0,0-.5-.378,4.5,4.5,0,0,0-.73-.333,6.3,6.3,0,0,0-.88-.239,4.662,4.662,0,0,0-.949-.1,2.6,2.6,0,0,0-.676.085,1.163,1.163,0,0,0-.5.293,1.436,1.436,0,0,0-.333.581,3.217,3.217,0,0,0-.114.929v2.7h3.543v2.341h-3.543v11.2l3.061.288v1.819Z" transform="translate(-434.799 -176.133)" fill="#8d2528"/>
      <path id="Path_642" data-name="Path 642" d="M655.821,192.993a2.649,2.649,0,0,0-.994.189,1.848,1.848,0,0,0-.815.731,4.8,4.8,0,0,0-.576,1.491,12.681,12.681,0,0,0-.283,2.485h4.97v-.895a11.645,11.645,0,0,0-.094-1.426,4.6,4.6,0,0,0-.353-1.287,2.43,2.43,0,0,0-.7-.924,1.8,1.8,0,0,0-1.153-.358m.373,14.556a8.414,8.414,0,0,1-3.345-.606,6.127,6.127,0,0,1-2.3-1.69,6.958,6.958,0,0,1-1.332-2.584,12.042,12.042,0,0,1-.427-3.28,10.217,10.217,0,0,1,.547-3.454,7.49,7.49,0,0,1,1.536-2.594,6.6,6.6,0,0,1,2.385-1.63,8.126,8.126,0,0,1,3.086-.567q5.725,0,5.964,5.581v1.72a8.282,8.282,0,0,1-.144,1.287h-9.005a8.82,8.82,0,0,0,.4,2.331,4.557,4.557,0,0,0,.87,1.57,3.171,3.171,0,0,0,1.272.885,4.6,4.6,0,0,0,1.62.273,7.3,7.3,0,0,0,1.312-.109,8.625,8.625,0,0,0,1.123-.278,7.182,7.182,0,0,0,.934-.368,7.644,7.644,0,0,0,.726-.4l.716,1.67a5.364,5.364,0,0,1-.954.75,9.059,9.059,0,0,1-1.406.721,10.756,10.756,0,0,1-1.71.552,7.877,7.877,0,0,1-1.869.224" transform="translate(-445.638 -183.685)" fill="#8d2528"/>
      <path id="Path_643" data-name="Path 643" d="M680.52,207.212v-1.849l1.988-.258V194.489l-1.874-.581v-2.082l4.711-.671h.084l.731.591v3.295h.065a6.4,6.4,0,0,1,.6-1.108,7.505,7.505,0,0,1,1.073-1.3,6.487,6.487,0,0,1,1.491-1.078,3.787,3.787,0,0,1,1.814-.447,5.277,5.277,0,0,1,.656.035,2.364,2.364,0,0,1,.378.089v4.791a2.605,2.605,0,0,0-.8-.243,7.95,7.95,0,0,0-1.521-.129,8.883,8.883,0,0,0-.964.055c-.323.04-.626.084-.9.144a5.725,5.725,0,0,0-.75.214,2.487,2.487,0,0,0-.5.248v8.8l3.434.328v1.794Z" transform="translate(-461.6 -183.665)" fill="#8d2528"/>
      <path id="Path_644" data-name="Path 644" d="M707.68,207.212v-1.849l1.988-.258V194.489l-1.878-.581v-2.082l4.716-.671h.079l.736.591v3.295h.055a6,6,0,0,1,.6-1.108,7.779,7.779,0,0,1,1.078-1.3,6.483,6.483,0,0,1,1.491-1.078,3.752,3.752,0,0,1,1.809-.447,5.156,5.156,0,0,1,.656.035,2.235,2.235,0,0,1,.378.089v4.791a2.555,2.555,0,0,0-.79-.244,7.955,7.955,0,0,0-1.526-.129,9.029,9.029,0,0,0-.964.055c-.323.04-.621.084-.9.144a5.8,5.8,0,0,0-.755.214,2.4,2.4,0,0,0-.5.248v8.8l3.429.328v1.794Z" transform="translate(-475.262 -183.665)" fill="#8d2528"/>
      <path id="Path_645" data-name="Path 645" d="M740.226,192.993a2.629,2.629,0,0,0-.994.189,1.849,1.849,0,0,0-.815.731,4.923,4.923,0,0,0-.581,1.491,13.513,13.513,0,0,0-.283,2.485h4.97v-.895a10.751,10.751,0,0,0-.1-1.426,4.44,4.44,0,0,0-.348-1.287,2.485,2.485,0,0,0-.706-.924,1.779,1.779,0,0,0-1.148-.358m.368,14.556a8.4,8.4,0,0,1-3.34-.606,6.128,6.128,0,0,1-2.3-1.69,6.9,6.9,0,0,1-1.332-2.584,12.044,12.044,0,0,1-.427-3.28,10.1,10.1,0,0,1,.547-3.454,7.488,7.488,0,0,1,1.536-2.594,6.6,6.6,0,0,1,2.385-1.63,8.126,8.126,0,0,1,3.086-.567q5.72,0,5.964,5.581v1.72a8.946,8.946,0,0,1-.144,1.287h-9a8.451,8.451,0,0,0,.4,2.331,4.553,4.553,0,0,0,.865,1.57,3.226,3.226,0,0,0,1.277.885,4.6,4.6,0,0,0,1.62.273,7.3,7.3,0,0,0,1.312-.109,8.633,8.633,0,0,0,1.123-.278,7.177,7.177,0,0,0,.934-.368,7.634,7.634,0,0,0,.726-.4l.716,1.67a5.24,5.24,0,0,1-.959.75,8.634,8.634,0,0,1-1.406.721,10.6,10.6,0,0,1-1.71.552,7.845,7.845,0,0,1-1.869.224" transform="translate(-488.093 -183.685)" fill="#8d2528"/>
      <path id="Path_646" data-name="Path 646" d="M771.155,197.877a3.374,3.374,0,0,0,1.491-.318,3.021,3.021,0,0,0,.994-.716V186.452a1.989,1.989,0,0,0-.77-.442,3.83,3.83,0,0,0-1.287-.194,3.165,3.165,0,0,0-1.4.318,2.922,2.922,0,0,0-1.158,1.049,5.963,5.963,0,0,0-.8,1.933,13.59,13.59,0,0,0-.323,2.982,12.212,12.212,0,0,0,.194,2.639,5.545,5.545,0,0,0,.641,1.8,2.664,2.664,0,0,0,1.034,1.029,2.907,2.907,0,0,0,1.372.323m-1.754,2.485a6.152,6.152,0,0,1-2.39-.462,5.094,5.094,0,0,1-1.933-1.426,6.844,6.844,0,0,1-1.3-2.435,11.4,11.4,0,0,1-.472-3.479,10.341,10.341,0,0,1,.562-3.479,7.852,7.852,0,0,1,1.61-2.723,7.36,7.36,0,0,1,2.574-1.784,8.716,8.716,0,0,1,3.429-.641A7.562,7.562,0,0,1,772.6,184a9.526,9.526,0,0,1,1.044.169v-4.686l-2.525-.432V177.5l5.834-.591h.065l.855.646V198.15H779.4v1.739c-.457.1-.994.209-1.57.323a10.117,10.117,0,0,1-1.928.174,2.062,2.062,0,0,1-1.312-.373,1.645,1.645,0,0,1-.467-1.352v-.537a5.678,5.678,0,0,1-.82.845,5.585,5.585,0,0,1-1.078.721,6.462,6.462,0,0,1-1.307.5,5.964,5.964,0,0,1-1.526.184" transform="translate(-503.239 -176.522)" fill="#8d2528"/>
      <path id="Path_647" data-name="Path 647" d="M801.131,179.073a.209.209,0,0,0-.129-.2.592.592,0,0,0-.263-.065h-.432v.581h.432a.437.437,0,0,0,.278-.084A.273.273,0,0,0,801.131,179.073Zm.07,1.908-.567-1.034h-.328v1.034h-.8v-2.8h1.267a2.049,2.049,0,0,1,.427.045,1.176,1.176,0,0,1,.388.144.874.874,0,0,1,.283.273.79.79,0,0,1,.109.422.725.725,0,0,1-.164.5.919.919,0,0,1-.422.288L802.14,181Zm1.615-1.347a1.989,1.989,0,0,0-.169-.81,2.142,2.142,0,0,0-1.148-1.108,2.251,2.251,0,0,0-2.386.447,2.053,2.053,0,0,0-.467.661,1.9,1.9,0,0,0-.169.81,1.924,1.924,0,0,0,.169.8,1.99,1.99,0,0,0,.467.656,2.272,2.272,0,0,0,.7.442,2.152,2.152,0,0,0,.85.159,2.122,2.122,0,0,0,.84-.159,2.2,2.2,0,0,0,.681-.442,2.088,2.088,0,0,0,.467-.656,1.988,1.988,0,0,0,.174-.8Zm.407,0a2.232,2.232,0,0,1-.209.929,2.391,2.391,0,0,1-.552.765,2.6,2.6,0,0,1-.81.5,2.644,2.644,0,0,1-.994.189,2.793,2.793,0,0,1-.994-.189,2.733,2.733,0,0,1-.825-.5,2.392,2.392,0,0,1-.552-.765,2.231,2.231,0,0,1-.2-.949,2.33,2.33,0,0,1,.2-.954,2.456,2.456,0,0,1,.552-.775,2.674,2.674,0,0,1,1.834-.716,2.619,2.619,0,0,1,1.814.716,2.359,2.359,0,0,1,.547.775,2.25,2.25,0,0,1,.2.954" transform="translate(-520.741 -176.653)" fill="#8d2528"/>
      <path id="Path_648" data-name="Path 648" d="M292.006,249.959a4.726,4.726,0,0,1-1.844,3.976,7.944,7.944,0,0,1-4.97,1.416,12.533,12.533,0,0,1-5.263-.88v-2.157a13.979,13.979,0,0,0,2.579.79,13.48,13.48,0,0,0,2.758.288,5.576,5.576,0,0,0,3.369-.85,2.783,2.783,0,0,0,1.133-2.361,3.007,3.007,0,0,0-.4-1.635,3.707,3.707,0,0,0-1.342-1.178,18.014,18.014,0,0,0-2.863-1.223,9.156,9.156,0,0,1-3.832-2.276,5.02,5.02,0,0,1-1.153-3.434,4.269,4.269,0,0,1,1.67-3.538,6.958,6.958,0,0,1,4.423-1.317,13.045,13.045,0,0,1,5.273,1.054l-.7,1.948a11.927,11.927,0,0,0-4.632-.994,4.512,4.512,0,0,0-2.778.76,2.515,2.515,0,0,0-.994,2.117,3.231,3.231,0,0,0,.373,1.64,3.42,3.42,0,0,0,1.242,1.168,14.911,14.911,0,0,0,2.674,1.178,10.59,10.59,0,0,1,4.165,2.316,4.567,4.567,0,0,1,1.138,3.21" transform="translate(-260.091 -206.032)" fill="#231f20"/>
      <path id="Path_649" data-name="Path 649" d="M312.195,255.3a7.4,7.4,0,0,0,1.118-.084,8.207,8.207,0,0,0,.855-.179v1.67a4.015,4.015,0,0,1-1.044.283,7.845,7.845,0,0,1-1.247.109q-4.185,0-4.18-4.4v-8.578H305.63v-1.054l2.067-.9.919-3.081h1.262v3.345h4.184v1.695h-4.184V252.6a2.907,2.907,0,0,0,.621,1.988,2.142,2.142,0,0,0,1.695.7" transform="translate(-273.019 -207.796)" fill="#231f20"/>
      <path id="Path_650" data-name="Path 650" d="M335.195,245.279a8.651,8.651,0,0,1,1.724.154l-.3,2.028a7.608,7.608,0,0,0-1.58-.2,3.842,3.842,0,0,0-2.982,1.421,5.178,5.178,0,0,0-1.242,3.538v7.733H328.63V245.543h1.8l.254,2.669h.119a6.317,6.317,0,0,1,1.933-2.172,4.349,4.349,0,0,1,2.485-.76" transform="translate(-284.589 -210.914)" fill="#231f20"/>
      <path id="Path_651" data-name="Path 651" d="M351.621,245.795v9.348a3.762,3.762,0,0,0,.8,2.634,3.262,3.262,0,0,0,2.515.865,4.1,4.1,0,0,0,3.3-1.232,6.259,6.259,0,0,0,1.049-4.04v-7.574h2.182v14.412h-1.8l-.318-1.933h-.119a4.334,4.334,0,0,1-1.859,1.63,6.257,6.257,0,0,1-2.718.566,5.516,5.516,0,0,1-3.941-1.247,5.322,5.322,0,0,1-1.307-4V245.78Z" transform="translate(-295.042 -211.166)" fill="#231f20"/>
      <path id="Path_652" data-name="Path 652" d="M386.945,260.189a6.161,6.161,0,0,1-4.85-1.928,7.924,7.924,0,0,1-1.715-5.467,8.163,8.163,0,0,1,1.739-5.586,6.338,6.338,0,0,1,4.97-1.988,9.878,9.878,0,0,1,2.077.224,7.07,7.07,0,0,1,1.63.522l-.666,1.888a10.362,10.362,0,0,0-1.58-.5,7.186,7.186,0,0,0-1.491-.189q-4.388,0-4.393,5.6a6.672,6.672,0,0,0,1.073,4.08,3.737,3.737,0,0,0,3.176,1.416,9.74,9.74,0,0,0,3.7-.775v1.933a7.872,7.872,0,0,1-3.643.75" transform="translate(-310.62 -210.884)" fill="#231f20"/>
      <path id="Path_653" data-name="Path 653" d="M411.545,255.3a7.4,7.4,0,0,0,1.118-.084,8.208,8.208,0,0,0,.855-.179v1.67a4.016,4.016,0,0,1-1.044.283,7.844,7.844,0,0,1-1.242.109q-4.189,0-4.184-4.4v-8.578H405v-1.054l2.067-.9.919-3.081h1.262v3.345h4.184v1.695h-4.184V252.6a2.907,2.907,0,0,0,.621,1.988,2.142,2.142,0,0,0,1.695.7" transform="translate(-323.005 -207.796)" fill="#231f20"/>
      <path id="Path_654" data-name="Path 654" d="M428.827,245.795v9.348a3.762,3.762,0,0,0,.805,2.634,3.268,3.268,0,0,0,2.51.865,4.1,4.1,0,0,0,3.31-1.232,6.241,6.241,0,0,0,1.044-4.04v-7.574h2.187v14.412h-1.8l-.318-1.933h-.114a4.319,4.319,0,0,1-1.864,1.63,6.252,6.252,0,0,1-2.713.567,5.516,5.516,0,0,1-3.941-1.247,5.317,5.317,0,0,1-1.307-4V245.78Z" transform="translate(-333.88 -211.166)" fill="#231f20"/>
      <path id="Path_655" data-name="Path 655" d="M464.78,245.279a8.6,8.6,0,0,1,1.72.154l-.3,2.028a7.569,7.569,0,0,0-1.575-.2,3.837,3.837,0,0,0-2.982,1.422,5.178,5.178,0,0,0-1.242,3.538v7.733H458.21V245.543h1.8l.248,2.669h.1a6.421,6.421,0,0,1,1.933-2.172,4.373,4.373,0,0,1,2.485-.76" transform="translate(-349.771 -210.914)" fill="#231f20"/>
      <path id="Path_656" data-name="Path 656" d="M483.137,258.465a4.433,4.433,0,0,0,3.205-1.118,4.14,4.14,0,0,0,1.163-3.131v-1.3l-2.182.089a7.962,7.962,0,0,0-3.757.81,2.445,2.445,0,0,0-1.153,2.231,2.256,2.256,0,0,0,.721,1.8,2.982,2.982,0,0,0,1.988.621M488.056,260l-.437-2.052h-.1a6.1,6.1,0,0,1-2.147,1.839,6.609,6.609,0,0,1-2.679.5,4.811,4.811,0,0,1-3.359-1.1,4.035,4.035,0,0,1-1.218-3.146q0-4.363,6.982-4.577l2.45-.075v-.895a3.667,3.667,0,0,0-.731-2.485,2.885,2.885,0,0,0-2.3-.83,9.541,9.541,0,0,0-4.08,1.1l-.671-1.67a10.437,10.437,0,0,1,4.88-1.237,5.5,5.5,0,0,1,3.822,1.143,4.779,4.779,0,0,1,1.242,3.673v9.835Z" transform="translate(-359.779 -210.96)" fill="#231f20"/>
    </g>
    <rect id="Rectangle_2180" data-name="Rectangle 2180" width="2.182" height="20.465" transform="translate(226.971 41.944)" fill="#231f20"/>
    <g id="Group_3146" data-name="Group 3146" transform="translate(92.561 13.368)" clip-path="url(#clip-path)">
      <path id="Path_657" data-name="Path 657" d="M547.339,255.348h-2.207l-3.881-12.876c-.184-.567-.393-1.287-.616-2.157a13.09,13.09,0,0,1-.358-1.565,30.666,30.666,0,0,1-.919,3.8l-3.777,12.8h-2.212L528.25,236.12h2.371L533.657,248a43.929,43.929,0,0,1,.924,4.522,32.564,32.564,0,0,1,1.049-4.706l3.449-11.694h2.366l3.618,11.8a35.308,35.308,0,0,1,1.064,4.6,39.6,39.6,0,0,1,.949-4.547L550.1,236.12h2.375Z" transform="translate(-385.004 -206.307)" fill="#231f20"/>
      <path id="Path_658" data-name="Path 658" d="M582.211,258.465a4.428,4.428,0,0,0,3.2-1.118,4.125,4.125,0,0,0,1.168-3.131v-1.3l-2.187.089a7.948,7.948,0,0,0-3.752.81,2.435,2.435,0,0,0-1.153,2.231,2.251,2.251,0,0,0,.716,1.8,2.982,2.982,0,0,0,1.988.621m4.93,1.536-.432-2.052h-.1a6.108,6.108,0,0,1-2.152,1.839,6.586,6.586,0,0,1-2.674.5,4.811,4.811,0,0,1-3.359-1.1,4.015,4.015,0,0,1-1.218-3.146q0-4.363,6.958-4.577l2.445-.075v-.895a3.668,3.668,0,0,0-.731-2.485,2.837,2.837,0,0,0-2.306-.83,9.527,9.527,0,0,0-4.08,1.1l-.671-1.67a10.436,10.436,0,0,1,4.88-1.237,5.5,5.5,0,0,1,3.822,1.143,4.779,4.779,0,0,1,1.242,3.673v9.835Z" transform="translate(-409.613 -210.96)" fill="#231f20"/>
      <path id="Path_659" data-name="Path 659" d="M614.12,245.279a8.6,8.6,0,0,1,1.719.154l-.3,2.028a7.569,7.569,0,0,0-1.575-.2,3.837,3.837,0,0,0-2.982,1.422,5.179,5.179,0,0,0-1.242,3.538v7.733H607.55V245.543h1.8l.249,2.669h.1a6.421,6.421,0,0,1,1.933-2.172,4.373,4.373,0,0,1,2.485-.76" transform="translate(-424.894 -210.914)" fill="#231f20"/>
      <path id="Path_660" data-name="Path 660" d="M636.245,245.279a8.617,8.617,0,0,1,1.724.154l-.3,2.028a7.61,7.61,0,0,0-1.58-.2,3.842,3.842,0,0,0-2.982,1.421,5.2,5.2,0,0,0-1.242,3.538v7.733H629.68V245.543h1.8l.249,2.669h.094a6.366,6.366,0,0,1,1.933-2.172,4.369,4.369,0,0,1,2.485-.76" transform="translate(-436.026 -210.914)" fill="#231f20"/>
      <path id="Path_661" data-name="Path 661" d="M653.6,258.49a4.428,4.428,0,0,0,3.2-1.118,4.14,4.14,0,0,0,1.163-3.131v-1.3l-2.182.089a8.014,8.014,0,0,0-3.757.81,2.445,2.445,0,0,0-1.148,2.231,2.251,2.251,0,0,0,.716,1.8,2.982,2.982,0,0,0,1.988.621m4.93,1.536-.432-2.052h-.109a6.052,6.052,0,0,1-2.147,1.839,6.61,6.61,0,0,1-2.679.5,4.811,4.811,0,0,1-3.359-1.1,4.036,4.036,0,0,1-1.218-3.146q0-4.363,6.987-4.577l2.445-.075v-.895a3.668,3.668,0,0,0-.731-2.485,3.013,3.013,0,0,0-2.336-.805,9.507,9.507,0,0,0-4.075,1.1l-.671-1.67a10.437,10.437,0,0,1,4.875-1.237,5.524,5.524,0,0,1,3.822,1.143,4.736,4.736,0,0,1,1.242,3.673v9.835Z" transform="translate(-445.52 -210.985)" fill="#231f20"/>
      <path id="Path_662" data-name="Path 662" d="M688.81,259.97v-9.323a3.762,3.762,0,0,0-.805-2.634,3.244,3.244,0,0,0-2.485-.865,4.138,4.138,0,0,0-3.315,1.223,6.213,6.213,0,0,0-1.054,4.04v7.559H678.97V245.558h1.774l.358,1.988h.1a4.473,4.473,0,0,1,1.878-1.655,6.143,6.143,0,0,1,2.7-.581,5.492,5.492,0,0,1,3.921,1.252,5.36,5.36,0,0,1,1.312,4.02v9.4Z" transform="translate(-460.82 -210.929)" fill="#231f20"/>
      <path id="Path_663" data-name="Path 663" d="M713.9,255.3a7.4,7.4,0,0,0,1.118-.084,8.216,8.216,0,0,0,.855-.179v1.67a4.017,4.017,0,0,1-1.044.283,7.845,7.845,0,0,1-1.242.109q-4.19,0-4.184-4.4v-8.578H707.34v-1.054l2.067-.9.919-3.081h1.262v3.345h4.184v1.695h-4.184V252.6a2.907,2.907,0,0,0,.621,1.988,2.142,2.142,0,0,0,1.695.7" transform="translate(-475.091 -207.796)" fill="#231f20"/>
      <path id="Path_664" data-name="Path 664" d="M728.73,245.81h2.341l3.156,8.22a30.845,30.845,0,0,1,1.287,4.065h.1q.174-.671.721-2.3t3.568-9.989h2.341l-6.192,16.4a8.185,8.185,0,0,1-2.152,3.449,4.562,4.562,0,0,1-3.017,1.024,8.493,8.493,0,0,1-1.988-.229V264.71a7.648,7.648,0,0,0,1.615.154,3.334,3.334,0,0,0,3.21-2.525l.8-2.052Z" transform="translate(-485.851 -211.181)" fill="#231f20"/>
    </g>
  </g>
</svg>
